<?xml version="1.0" encoding="UTF-8" standalone="no"?>
<!-- Created with Inkscape (http://www.inkscape.org/) -->

<svg
   width="160mm"
   height="50mm"
   viewBox="0 0 160 40"
   version="1.1"
   id="svg5"
   inkscape:version="1.1 (c68e22c387, 2021-05-23)"
   sodipodi:docname="lantana.svg"
   xmlns:inkscape="http://www.inkscape.org/namespaces/inkscape"
   xmlns:sodipodi="http://sodipodi.sourceforge.net/DTD/sodipodi-0.dtd"
   xmlns="http://www.w3.org/2000/svg"
   xmlns:svg="http://www.w3.org/2000/svg">
  <sodipodi:namedview
     id="namedview7"
     pagecolor="#ffffff"
     bordercolor="#666666"
     borderopacity="1.0"
     inkscape:pageshadow="2"
     inkscape:pageopacity="0.0"
     inkscape:pagecheckerboard="0"
     inkscape:document-units="mm"
     showgrid="false"
     inkscape:zoom="0.73406285"
     inkscape:cx="376.67074"
     inkscape:cy="126.01101"
     inkscape:window-width="1920"
     inkscape:window-height="1009"
     inkscape:window-x="-8"
     inkscape:window-y="-8"
     inkscape:window-maximized="1"
     inkscape:current-layer="layer1" />
  <defs
     id="defs2">
    <rect
       x="243.84833"
       y="64.027215"
       width="529.92738"
       height="129.41671"
       id="rect21954" />
    <rect
       x="231.5878"
       y="72.200902"
       width="505.40631"
       height="122.60531"
       id="rect19242" />
    <rect
       x="215.24043"
       y="59.940372"
       width="523.11597"
       height="102.17109"
       id="rect3880" />
  </defs>
  <g
     inkscape:label="レイヤー 1"
     inkscape:groupmode="layer"
     id="layer1">
    <g
       style="opacity:1"
       id="g950"
       transform="matrix(0.07751465,0,0,0.07751465,5.0263946,0.70114899)">
      <g
         id="g924">
	<path
   class="st0"
   d="m 256,84.62 c 23.371,0 42.306,-18.943 42.306,-42.315 C 298.306,18.943 279.372,0 256,0 c -23.372,0 -42.305,18.943 -42.305,42.305 0,23.373 18.933,42.315 42.305,42.315 z"
   style="fill:#383838"
   id="path890" />

	<path
   class="st0"
   d="m 256,427.38 c -23.372,0 -42.305,18.943 -42.305,42.306 0,23.371 18.933,42.314 42.305,42.314 23.371,0 42.306,-18.943 42.306,-42.315 0,-23.363 -18.934,-42.305 -42.306,-42.305 z"
   style="fill:#383838"
   id="path892" />

	<path
   class="st0"
   d="m 134.813,134.831 c 16.531,-16.531 16.531,-43.324 0,-59.846 -16.523,-16.531 -43.315,-16.531 -59.837,0 -16.522,16.522 -16.532,43.315 0,59.846 16.531,16.532 43.314,16.513 59.837,0 z"
   style="fill:#383838"
   id="path894" />

	<path
   class="st0"
   d="m 377.169,377.178 c -16.523,16.523 -16.532,43.324 0,59.838 16.531,16.531 43.323,16.531 59.846,0 16.531,-16.513 16.531,-43.315 0,-59.838 -16.523,-16.532 -43.315,-16.532 -59.846,0 z"
   style="fill:#383838"
   id="path896" />

	<path
   class="st0"
   d="m 99.012,238.824 c 1.654,5.467 2.542,11.205 2.542,17.177 0,5.971 -0.888,11.774 -2.588,17.176 h 42.66 c -0.897,-5.579 -1.318,-11.336 -1.318,-17.176 0,-5.832 0.421,-11.598 1.318,-17.177 z"
   style="fill:#383838"
   id="path898" />

	<path
   class="st0"
   d="m 132.813,157.11 30.138,30.175 c 6.851,-9.261 15.056,-17.485 24.335,-24.335 l -30.128,-30.118 c -2.71,5.036 -6.131,9.728 -10.373,13.97 -4.244,4.214 -8.917,7.644 -13.972,10.308 z"
   style="fill:#383838"
   id="path900" />

	<path
   class="st0"
   d="m 162.95,324.724 -30.138,30.12 c 5.055,2.719 9.728,6.13 13.971,10.372 4.242,4.243 7.663,8.925 10.373,13.962 l 30.128,-30.128 c -9.278,-6.86 -17.483,-15.056 -24.334,-24.326 z"
   style="fill:#383838"
   id="path902" />

	<path
   class="st0"
   d="M 273.177,141.625 V 98.974 c -5.411,1.654 -11.215,2.588 -17.176,2.588 -5.962,0 -11.766,-0.935 -17.177,-2.588 v 42.651 c 5.579,-0.888 11.336,-1.298 17.177,-1.298 5.84,0 11.597,0.41 17.176,1.298 z"
   style="fill:#383838"
   id="path904" />

	<path
   class="st0"
   d="m 238.823,370.375 v 42.604 c 5.412,-1.644 11.215,-2.532 17.177,-2.532 5.962,0 11.766,0.888 17.176,2.532 v -42.604 c -5.579,0.897 -11.336,1.318 -17.176,1.318 -5.841,-10e-4 -11.598,-0.421 -17.177,-1.318 z"
   style="fill:#383838"
   id="path906" />

	<path
   class="st0"
   d="m 379.169,354.844 -30.129,-30.12 c -6.84,9.27 -15.064,17.466 -24.326,24.326 l 30.129,30.128 c 2.71,-5.036 6.13,-9.718 10.364,-13.962 4.234,-4.242 8.925,-7.654 13.962,-10.372 z"
   style="fill:#383838"
   id="path908" />

	<path
   class="st0"
   d="m 349.04,187.286 30.129,-30.175 c -5.038,-2.664 -9.728,-6.094 -13.962,-10.308 -4.234,-4.242 -7.654,-8.934 -10.364,-13.97 l -30.129,30.118 c 9.262,6.849 17.486,15.073 24.326,24.335 z"
   style="fill:#383838"
   id="path910" />

	<path
   class="st0"
   d="m 370.375,238.824 c 0.888,5.579 1.318,11.345 1.318,17.177 0,5.84 -0.43,11.597 -1.318,17.176 h 42.642 c -1.635,-5.402 -2.57,-11.205 -2.57,-17.176 0,-5.972 0.935,-11.766 2.57,-17.177 z"
   style="fill:#383838"
   id="path912" />

	<path
   class="st0"
   d="M 84.62,256.009 C 84.62,232.628 65.677,213.685 42.305,213.685 18.943,213.686 0,232.628 0,256 c 0,23.372 18.943,42.304 42.324,42.304 23.354,0.001 42.296,-18.932 42.296,-42.295 z"
   style="fill:#383838"
   id="path914" />

	<path
   class="st0"
   d="m 469.694,213.686 c -23.39,0 -42.323,18.942 -42.323,42.324 0.008,23.363 18.933,42.296 42.323,42.296 C 493.057,298.305 512,279.372 512,256 c 0,-23.372 -18.943,-42.314 -42.306,-42.314 z"
   style="fill:#383838"
   id="path916" />

	<path
   class="st0"
   d="m 74.976,377.178 c -16.522,16.523 -16.522,43.324 0,59.846 16.531,16.523 43.314,16.523 59.837,-0.008 16.531,-16.513 16.531,-43.315 0,-59.838 -16.523,-16.532 -43.306,-16.532 -59.837,0 z"
   style="fill:#383838"
   id="path918" />

	<path
   class="st0"
   d="m 437.015,134.831 c 16.531,-16.531 16.531,-43.324 0,-59.846 -16.523,-16.531 -43.315,-16.531 -59.838,0 -16.541,16.522 -16.531,43.315 0,59.846 16.523,16.513 43.315,16.532 59.838,0 z"
   style="fill:#383838"
   id="path920" />

	<path
   class="st0"
   d="m 353.32,256 c 0,-53.744 -43.576,-97.321 -97.32,-97.321 -53.744,0 -97.32,43.577 -97.32,97.321 0,53.744 43.577,97.32 97.321,97.32 53.744,0 97.319,-43.576 97.319,-97.32 z"
   style="fill:#383838"
   id="path922" />

</g>
    </g>
    <text
       xml:space="preserve"
       transform="matrix(0.26458333,0,0,0.26458333,-16.580097,-9.731796)"
       id="text21952"
       style="font-style:normal;font-weight:normal;font-size:96px;line-height:1.25;font-family:sans-serif;white-space:pre;shape-inside:url(#rect21954);fill:#383838;fill-opacity:1;stroke:none"><tspan
         x="243.84766"
         y="148.96484"
         id="tspan33013">Lantana</tspan></text>
  </g>
  <style
     type="text/css"
     id="style888">
	.st0{fill:#4B4B4B;}
</style>
</svg>
