<!--?xml version="1.0" encoding="utf-8"?-->
<!-- Generator: Adobe Illustrator 18.1.1, SVG Export Plug-In . SVG Version: 6.00 Build 0)  -->

<svg version="1.1" id="_x32_" xmlns="http://www.w3.org/2000/svg" xmlns:xlink="http://www.w3.org/1999/xlink" x="0px" y="0px" viewBox="0 0 512 512" style="width: 256px; height: 256px; opacity: 1;" xml:space="preserve">
<style type="text/css">
	.st0{fill:#4B4B4B;}
</style>
<g>
	<path class="st0" d="M256,84.62c23.371,0,42.306-18.943,42.306-42.315C298.306,18.943,279.372,0,256,0
		c-23.372,0-42.305,18.943-42.305,42.305C213.695,65.678,232.628,84.62,256,84.62z" style="fill: rgb(56, 56, 56);"></path>
	<path class="st0" d="M256,427.38c-23.372,0-42.305,18.943-42.305,42.306C213.695,493.057,232.628,512,256,512
		c23.371,0,42.306-18.943,42.306-42.315C298.306,446.322,279.372,427.38,256,427.38z" style="fill: rgb(56, 56, 56);"></path>
	<path class="st0" d="M134.813,134.831c16.531-16.531,16.531-43.324,0-59.846c-16.523-16.531-43.315-16.531-59.837,0
		c-16.522,16.522-16.532,43.315,0,59.846C91.507,151.363,118.29,151.344,134.813,134.831z" style="fill: rgb(56, 56, 56);"></path>
	<path class="st0" d="M377.169,377.178c-16.523,16.523-16.532,43.324,0,59.838c16.531,16.531,43.323,16.531,59.846,0
		c16.531-16.513,16.531-43.315,0-59.838C420.492,360.646,393.7,360.646,377.169,377.178z" style="fill: rgb(56, 56, 56);"></path>
	<path class="st0" d="M99.012,238.824c1.654,5.467,2.542,11.205,2.542,17.177c0,5.971-0.888,11.774-2.588,17.176h42.66
		c-0.897-5.579-1.318-11.336-1.318-17.176c0-5.832,0.421-11.598,1.318-17.177H99.012z" style="fill: rgb(56, 56, 56);"></path>
	<path class="st0" d="M132.813,157.11l30.138,30.175c6.851-9.261,15.056-17.485,24.335-24.335l-30.128-30.118
		c-2.71,5.036-6.131,9.728-10.373,13.97C142.541,151.016,137.868,154.446,132.813,157.11z" style="fill: rgb(56, 56, 56);"></path>
	<path class="st0" d="M162.95,324.724l-30.138,30.12c5.055,2.719,9.728,6.13,13.971,10.372c4.242,4.243,7.663,8.925,10.373,13.962
		l30.128-30.128C178.006,342.19,169.801,333.994,162.95,324.724z" style="fill: rgb(56, 56, 56);"></path>
	<path class="st0" d="M273.177,141.625V98.974c-5.411,1.654-11.215,2.588-17.176,2.588c-5.962,0-11.766-0.935-17.177-2.588v42.651
		c5.579-0.888,11.336-1.298,17.177-1.298C261.841,140.327,267.598,140.737,273.177,141.625z" style="fill: rgb(56, 56, 56);"></path>
	<path class="st0" d="M238.823,370.375v42.604c5.412-1.644,11.215-2.532,17.177-2.532c5.962,0,11.766,0.888,17.176,2.532v-42.604
		c-5.579,0.897-11.336,1.318-17.176,1.318C250.159,371.692,244.402,371.272,238.823,370.375z" style="fill: rgb(56, 56, 56);"></path>
	<path class="st0" d="M379.169,354.844l-30.129-30.12c-6.84,9.27-15.064,17.466-24.326,24.326l30.129,30.128
		c2.71-5.036,6.13-9.718,10.364-13.962C369.441,360.974,374.132,357.562,379.169,354.844z" style="fill: rgb(56, 56, 56);"></path>
	<path class="st0" d="M349.04,187.286l30.129-30.175c-5.038-2.664-9.728-6.094-13.962-10.308c-4.234-4.242-7.654-8.934-10.364-13.97
		l-30.129,30.118C333.976,169.8,342.2,178.024,349.04,187.286z" style="fill: rgb(56, 56, 56);"></path>
	<path class="st0" d="M370.375,238.824c0.888,5.579,1.318,11.345,1.318,17.177c0,5.84-0.43,11.597-1.318,17.176h42.642
		c-1.635-5.402-2.57-11.205-2.57-17.176c0-5.972,0.935-11.766,2.57-17.177H370.375z" style="fill: rgb(56, 56, 56);"></path>
	<path class="st0" d="M84.62,256.009c0-23.381-18.943-42.324-42.315-42.324C18.943,213.686,0,232.628,0,256
		c0,23.372,18.943,42.304,42.324,42.304C65.678,298.305,84.62,279.372,84.62,256.009z" style="fill: rgb(56, 56, 56);"></path>
	<path class="st0" d="M469.694,213.686c-23.39,0-42.323,18.942-42.323,42.324c0.008,23.363,18.933,42.296,42.323,42.296
		C493.057,298.305,512,279.372,512,256C512,232.628,493.057,213.686,469.694,213.686z" style="fill: rgb(56, 56, 56);"></path>
	<path class="st0" d="M74.976,377.178c-16.522,16.523-16.522,43.324,0,59.846c16.531,16.523,43.314,16.523,59.837-0.008
		c16.531-16.513,16.531-43.315,0-59.838C118.29,360.646,91.507,360.646,74.976,377.178z" style="fill: rgb(56, 56, 56);"></path>
	<path class="st0" d="M437.015,134.831c16.531-16.531,16.531-43.324,0-59.846c-16.523-16.531-43.315-16.531-59.838,0
		c-16.541,16.522-16.531,43.315,0,59.846C393.7,151.344,420.492,151.363,437.015,134.831z" style="fill: rgb(56, 56, 56);"></path>
	<path class="st0" d="M353.32,256c0-53.744-43.576-97.321-97.32-97.321S158.68,202.256,158.68,256
		c0,53.744,43.577,97.32,97.321,97.32S353.32,309.744,353.32,256z" style="fill: rgb(56, 56, 56);"></path>
</g>
</svg>
